<svg xmlns="http://www.w3.org/2000/svg" width="20" height="20" x="0" y="0" viewBox="0 0 172 172" style="fill:#000"><g fill="none" fill-rule="nonzero" stroke="none" stroke-dashoffset="0" stroke-linecap="butt" stroke-linejoin="miter" stroke-miterlimit="10" stroke-width="1" font-family="none" font-size="none" font-weight="none" text-anchor="none" style="mix-blend-mode:normal"><path fill="none" d="M0,172v-172h172v172z"/><g fill="#666"><path d="M11.46667,11.46667c-2.06765,-0.02924 -3.99087,1.05709 -5.03322,2.843c-1.04236,1.78592 -1.04236,3.99474 0,5.78066c1.04236,1.78592 2.96558,2.87225 5.03322,2.843h10.7724c1.29517,0 2.37592,0.81106 2.74349,2.06042l24.43385,83.06614c2.14446,7.29116 8.88821,12.34011 16.49453,12.34011h62.93229c7.73092,0 14.55694,-5.22483 16.59532,-12.67604l14.89323,-54.61224c0.47113,-1.72445 0.11102,-3.56997 -0.97382,-4.99081c-1.08485,-1.42084 -2.7703,-2.25442 -4.55795,-2.25424h-111.72161l-7.08828,-24.10911c-0.00373,0 -0.00747,0 -0.0112,0c-1.78818,-6.07784 -7.40968,-10.29089 -13.73984,-10.29089zM68.8,131.86667c-6.33287,0 -11.46667,5.1338 -11.46667,11.46667c0,6.33287 5.1338,11.46667 11.46667,11.46667c6.33287,0 11.46667,-5.1338 11.46667,-11.46667c0,-6.33287 -5.1338,-11.46667 -11.46667,-11.46667zM126.13333,131.86667c-6.33287,0 -11.46667,5.1338 -11.46667,11.46667c0,6.33287 5.1338,11.46667 11.46667,11.46667c6.33287,0 11.46667,-5.1338 11.46667,-11.46667c0,-6.33287 -5.1338,-11.46667 -11.46667,-11.46667z"/></g></g></svg>