<svg xmlns="http://www.w3.org/2000/svg" x="0px" y="0px"
width="20" height="20"
viewBox="0 0 172 172"
style=" fill:#000000;"><g fill="none" fill-rule="nonzero" stroke="none" stroke-width="1" stroke-linecap="butt" stroke-linejoin="miter" stroke-miterlimit="10" stroke-dasharray="" stroke-dashoffset="0" font-family="none" font-weight="none" font-size="none" text-anchor="none" style="mix-blend-mode: normal"><path d="M0,172v-172h172v172z" fill="none"></path><g fill="#666666"><path d="M53.75,21.5c-21.79395,0 -39.7246,16.41895 -42.4121,37.45703c-0.37794,1.72168 -0.5879,3.52734 -0.5879,5.54297c0,24.56543 18.77051,46.7373 36.70118,63.19824c17.88867,16.50294 35.77734,27.37891 35.77734,27.37891l2.77148,1.72169l2.77149,-1.72169c0,0 17.88867,-10.87597 35.81933,-27.37891c17.88867,-16.46094 36.65918,-38.63281 36.65918,-63.19824c0,-2.01562 -0.20996,-3.77929 -0.5459,-5.45898c-2.72949,-21.12207 -20.61817,-37.54102 -42.4541,-37.54102c-13.35351,0 -24.39746,6.97071 -32.25,16.54493c-7.85254,-9.57422 -18.89648,-16.54493 -32.25,-16.54493zM53.75,32.25c11.8418,0 22.00391,6.38281 27.63086,15.87305l4.61914,7.81054l4.61915,-7.81054c5.62695,-9.49024 15.78906,-15.87305 27.63085,-15.87305c16.50293,0 29.85645,12.30371 31.83008,28.30274l0.08398,0.41992c0.20996,1.00781 0.33594,2.1416 0.33594,3.52734c0,18.8125 -16.16699,39.64063 -33.21582,55.30371c-15.62109,14.40332 -28.80664,22.42383 -31.28418,23.97754c-2.47754,-1.55371 -15.66308,-9.57422 -31.32617,-23.97754c-17.00684,-15.66308 -33.17383,-36.49121 -33.17383,-55.30371c0,-1.42773 0.12598,-2.56152 0.33594,-3.52734l0.08399,-0.25195v-0.25196c2.01563,-15.91504 15.32715,-28.21875 31.83007,-28.21875z"></path></g></g></svg>