<svg xmlns="http://www.w3.org/2000/svg" width="23" height="23" x="0" y="0" viewBox="0 0 172 172" style="fill:#000"><g fill="none" fill-rule="nonzero" stroke="none" stroke-dashoffset="0" stroke-linecap="butt" stroke-linejoin="miter" stroke-miterlimit="10" stroke-width="1" font-family="none" font-size="none" font-weight="none" text-anchor="none" style="mix-blend-mode:normal"><path fill="none" d="M0,172v-172h172v172z"/><g fill="#333"><path d="M86,21.5c-35.42041,0 -64.5,27.60986 -64.5,61.8125c0,18.22461 8.44043,34.4126 21.5,45.6875v24.85938l23.85156,-11.92578c6.06787,1.82666 12.40869,3.19141 19.14844,3.19141c35.42041,0 64.5,-27.60986 64.5,-61.8125c0,-34.20264 -29.07959,-61.8125 -64.5,-61.8125zM86,32.25c29.87744,0 53.75,22.92773 53.75,51.0625c0,28.13477 -23.87256,51.0625 -53.75,51.0625c-6.4248,0 -12.55566,-1.21777 -18.30859,-3.19141l-2.18359,-0.67187l-11.75781,5.87891v-12.09375l-2.01562,-1.67969c-11.92578,-9.40625 -19.48437,-23.49463 -19.48437,-39.30469c0,-28.13477 23.87256,-51.0625 53.75,-51.0625zM79.95313,66.34766l-32.41797,34.26563l29.05859,-16.125l15.45313,16.62891l32.08203,-34.76953l-28.38672,15.95703z"/></g></g></svg>